# xmcd
#
# Track frame offsets: 
#        150
#        20085
#        41087
#        60327
#        83202
#        105742
#        126790
#        148115
#
# Disc length: 2267 seconds
#
# Revision: 4
# Processed by: cddbd v1.5.2PL0 Copyright (c) Steve Scherf et al.
# Submitted via: ExactAudioCopy v1.1
#
DISCID=6b08d908
DTITLE=Ashford and Simpson - Love Or Physical
DYEAR=1989
DGENRE=Soul
TTITLE0=Love Or Physical
TTITLE1=I'll Be There For You
TTITLE2=Comes With The Package
TTITLE3=Til We Get It Right
TTITLE4=Something To You
TTITLE5=In Your Arms
TTITLE6=Cookies And Cake
TTITLE7=Timing
EXTD=YEAR: 1989
EXTT0=
EXTT1=
EXTT2=
EXTT3=
EXTT4=
EXTT5=
EXTT6=
EXTT7=
PLAYORDER=
